<?xml version="1.0" encoding="UTF-8"?>
<svg viewBox="0 0 36 36" version="1.1" xmlns="http://www.w3.org/2000/svg" xmlns:xlink="http://www.w3.org/1999/xlink">
    <g id="Products-Content----WIP" stroke="none" stroke-width="1" fill="none" fill-rule="evenodd">
        <g id="Product---SMS" transform="translate(-221.000000, -2077.000000)" fill-rule="nonzero">
            <g id="icon_green-check-green-circle" transform="translate(221.000000, 2077.000000)">
                <circle id="Oval" fill-opacity="0.1" fill="#00C08B" cx="18" cy="18" r="18"></circle>
                <path d="M15.7275,24.0750015 L15.72525,24.0750015 C15.5931541,24.0747287 15.4665441,24.0221431 15.373125,23.92875 L11.394,19.940625 C11.3015613,19.8478893 11.2499357,19.7221095 11.2505635,19.5911728 C11.2512028,19.4602361 11.3040432,19.3349618 11.397375,19.243125 C11.5932335,19.051773 11.9064875,19.0532766 12.1005,19.2465 L15.728625,22.88025 L23.900625,14.769 C24.0955617,14.5767154 24.4088133,14.5767154 24.60375,14.769 C24.6973279,14.8613738 24.7500018,14.9873845 24.7500018,15.118875 C24.7500018,15.2503655 24.6973279,15.3763762 24.60375,15.46875 L16.0785,23.931 C15.9847147,24.0235686 15.8581495,24.0753268 15.726375,24.0750015 L15.7275,24.0750015 Z" id="Path" stroke="#00C08B" stroke-width="1.5"></path>
            </g>
        </g>
    </g>
</svg>